<svg width="116" height="88" viewBox="0 0 116 88" fill="none" xmlns="http://www.w3.org/2000/svg">
<rect x="17.5" y="0.5" width="81" height="87" rx="4.5" fill="#F2F9FF" stroke="#DBE6F2"/>
<rect x="0.5" y="9.5004" width="82" height="18" rx="4.5" fill="white" stroke="#DBE6F2"/>
<path d="M7.12484 13.9171C5.924 13.9171 4.94775 14.8933 4.94775 16.0942C4.94775 17.2721 5.869 18.2254 7.06984 18.2667C7.1065 18.2621 7.14317 18.2621 7.17067 18.2667C7.17984 18.2667 7.18442 18.2667 7.19359 18.2667C7.19817 18.2667 7.19817 18.2667 7.20275 18.2667C8.37609 18.2254 9.29734 17.2721 9.30192 16.0942C9.30192 14.8933 8.32567 13.9171 7.12484 13.9171Z" fill="#1E8323"/>
<path d="M9.45344 19.4858C8.17469 18.6333 6.08927 18.6333 4.80135 19.4858C4.21927 19.8754 3.89844 20.4025 3.89844 20.9662C3.89844 21.53 4.21927 22.0525 4.79677 22.4375C5.43844 22.8683 6.28177 23.0837 7.1251 23.0837C7.96844 23.0837 8.81177 22.8683 9.45344 22.4375C10.0309 22.0479 10.3518 21.5254 10.3518 20.9571C10.3472 20.3933 10.0309 19.8708 9.45344 19.4858Z" fill="#1E8323"/>
<path d="M12.1623 16.3646C12.2356 17.2537 11.6031 18.0329 10.7277 18.1383C10.7231 18.1383 10.7231 18.1383 10.7185 18.1383H10.7048C10.6773 18.1383 10.6498 18.1383 10.6269 18.1475C10.1823 18.1704 9.77437 18.0283 9.46729 17.7671C9.93937 17.3454 10.2098 16.7129 10.1548 16.0254C10.1227 15.6542 9.99437 15.315 9.80187 15.0262C9.97604 14.9392 10.1777 14.8842 10.384 14.8658C11.2823 14.7879 12.0844 15.4571 12.1623 16.3646Z" fill="#1E8323"/>
<path d="M13.0788 20.6042C13.0421 21.0487 12.7579 21.4337 12.2813 21.695C11.8229 21.9471 11.2454 22.0662 10.6725 22.0525C11.0025 21.7546 11.195 21.3833 11.2317 20.9892C11.2775 20.4208 11.0071 19.8754 10.4663 19.44C10.1592 19.1971 9.80169 19.0046 9.41211 18.8625C10.425 18.5692 11.6992 18.7662 12.4829 19.3987C12.9046 19.7379 13.12 20.1642 13.0788 20.6042Z" fill="#1E8323"/>
<rect x="16.2974" y="16.2973" width="62.38" height="3.83471" rx="1.91736" fill="#F2F2F2"/>
<rect x="33.5" y="35.5013" width="82" height="18" rx="4.5" fill="white" stroke="#DBE6F2"/>
<path d="M112.07 40.0692C111.74 39.6934 111.249 39.4597 110.708 39.4597C110.195 39.4597 109.727 39.6705 109.393 40.0142C109.2 40.2113 109.054 40.4497 108.967 40.7155C108.907 40.8988 108.875 41.0913 108.875 41.293C108.875 41.6367 108.971 41.9622 109.141 42.2372C109.232 42.393 109.352 42.5351 109.489 42.6542C109.81 42.9476 110.236 43.1263 110.708 43.1263C110.91 43.1263 111.103 43.0942 111.281 43.0301C111.703 42.8972 112.056 42.6084 112.276 42.2372C112.372 42.0813 112.445 41.9026 112.487 41.7192C112.523 41.5817 112.542 41.4397 112.542 41.293C112.542 40.8255 112.363 40.3947 112.07 40.0692ZM111.391 41.6276H111.052V41.9851C111.052 42.173 110.896 42.3288 110.708 42.3288C110.52 42.3288 110.365 42.173 110.365 41.9851V41.6276H110.025C109.838 41.6276 109.682 41.4717 109.682 41.2838C109.682 41.0959 109.838 40.9401 110.025 40.9401H110.365V40.6147C110.365 40.4267 110.52 40.2709 110.708 40.2709C110.896 40.2709 111.052 40.4267 111.052 40.6147V40.9401H111.391C111.579 40.9401 111.735 41.0959 111.735 41.2838C111.735 41.4717 111.584 41.6276 111.391 41.6276Z" fill="#E75D5D"/>
<path d="M112.083 44.5013C112.083 43.9009 111.969 43.3234 111.753 42.7963C111.611 42.8972 111.451 42.9751 111.281 43.0301C111.231 43.0484 111.18 43.0622 111.125 43.0759C111.299 43.5159 111.396 43.9972 111.396 44.5013C111.396 45.5647 110.965 46.5317 110.268 47.2376C110.135 47.068 109.966 46.9122 109.764 46.7792C108.522 45.9451 106.487 45.9451 105.236 46.7792C105.034 46.9122 104.869 47.068 104.732 47.2376C104.035 46.5317 103.604 45.5647 103.604 44.5013C103.604 42.3517 105.35 40.6055 107.5 40.6055C107.999 40.6055 108.481 40.7017 108.921 40.8759C108.934 40.8209 108.948 40.7705 108.967 40.7155C109.022 40.5459 109.099 40.3901 109.205 40.248C108.678 40.0326 108.1 39.918 107.5 39.918C104.974 39.918 102.917 41.9759 102.917 44.5013C102.917 45.8305 103.489 47.0267 104.397 47.8655C104.397 47.8701 104.397 47.8701 104.392 47.8747C104.438 47.9205 104.493 47.9572 104.539 47.9984C104.567 48.0213 104.589 48.0442 104.617 48.0626C104.699 48.1313 104.791 48.1955 104.878 48.2597C104.91 48.2826 104.938 48.3009 104.97 48.3238C105.057 48.3834 105.149 48.4384 105.245 48.4888C105.277 48.5072 105.314 48.5301 105.346 48.5484C105.437 48.5988 105.534 48.6447 105.634 48.6859C105.671 48.7042 105.708 48.7226 105.744 48.7363C105.845 48.7776 105.946 48.8142 106.047 48.8463C106.084 48.8601 106.12 48.8738 106.157 48.883C106.267 48.9151 106.377 48.9426 106.487 48.9701C106.519 48.9792 106.551 48.9884 106.588 48.993C106.716 49.0205 106.844 49.0388 106.977 49.0526C106.996 49.0526 107.014 49.0572 107.032 49.0617C107.188 49.0755 107.344 49.0847 107.5 49.0847C107.656 49.0847 107.812 49.0755 107.963 49.0617C107.981 49.0617 107.999 49.0572 108.018 49.0526C108.151 49.0388 108.279 49.0205 108.407 48.993C108.439 48.9884 108.472 48.9747 108.508 48.9701C108.618 48.9426 108.733 48.9197 108.838 48.883C108.875 48.8692 108.912 48.8555 108.948 48.8463C109.049 48.8097 109.154 48.7776 109.251 48.7363C109.287 48.7226 109.324 48.7042 109.361 48.6859C109.457 48.6447 109.553 48.5988 109.649 48.5484C109.686 48.5301 109.718 48.5072 109.75 48.4888C109.842 48.4338 109.934 48.3834 110.025 48.3238C110.057 48.3055 110.085 48.2826 110.117 48.2597C110.209 48.1955 110.296 48.1313 110.378 48.0626C110.406 48.0397 110.429 48.0167 110.456 47.9984C110.507 47.9572 110.557 47.9159 110.603 47.8747C110.603 47.8701 110.603 47.8701 110.598 47.8655C111.51 47.0267 112.083 45.8305 112.083 44.5013Z" fill="#E75D5D"/>
<path d="M107.5 42.1776C106.551 42.1776 105.781 42.9476 105.781 43.8963C105.781 44.8267 106.51 45.583 107.477 45.6105C107.491 45.6105 107.509 45.6105 107.518 45.6105C107.528 45.6105 107.541 45.6105 107.55 45.6105C107.555 45.6105 107.56 45.6105 107.56 45.6105C108.485 45.5784 109.214 44.8267 109.219 43.8963C109.219 42.9476 108.449 42.1776 107.5 42.1776Z" fill="#E75D5D"/>
<rect x="37.3228" y="42.181" width="62.38" height="3.83471" rx="1.91736" fill="#F2F2F2"/>
<rect x="0.5" y="60.5005" width="82" height="19" rx="4.5" fill="white" stroke="#DBE6F2"/>
<path d="M7.12484 64.9172C5.924 64.9172 4.94775 65.8934 4.94775 67.0942C4.94775 68.2722 5.869 69.2255 7.06984 69.2667C7.1065 69.2622 7.14317 69.2622 7.17067 69.2667C7.17984 69.2667 7.18442 69.2667 7.19359 69.2667C7.19817 69.2667 7.19817 69.2667 7.20275 69.2667C8.37609 69.2255 9.29734 68.2722 9.30192 67.0942C9.30192 65.8934 8.32567 64.9172 7.12484 64.9172Z" fill="#1E8323"/>
<path d="M9.45344 70.4859C8.17469 69.6334 6.08927 69.6334 4.80135 70.4859C4.21927 70.8755 3.89844 71.4026 3.89844 71.9663C3.89844 72.5301 4.21927 73.0526 4.79677 73.4376C5.43844 73.8684 6.28177 74.0838 7.1251 74.0838C7.96844 74.0838 8.81177 73.8684 9.45344 73.4376C10.0309 73.048 10.3518 72.5255 10.3518 71.9572C10.3472 71.3934 10.0309 70.8709 9.45344 70.4859Z" fill="#1E8323"/>
<path d="M12.1623 67.3647C12.2356 68.2538 11.6031 69.033 10.7277 69.1384C10.7231 69.1384 10.7231 69.1384 10.7185 69.1384H10.7048C10.6773 69.1384 10.6498 69.1384 10.6269 69.1476C10.1823 69.1705 9.77437 69.0284 9.46729 68.7672C9.93937 68.3455 10.2098 67.713 10.1548 67.0255C10.1227 66.6542 9.99437 66.3151 9.80187 66.0263C9.97604 65.9392 10.1777 65.8842 10.384 65.8659C11.2823 65.788 12.0844 66.4572 12.1623 67.3647Z" fill="#1E8323"/>
<path d="M13.0788 71.6042C13.0421 72.0488 12.7579 72.4338 12.2813 72.6951C11.8229 72.9472 11.2454 73.0663 10.6725 73.0526C11.0025 72.7547 11.195 72.3834 11.2317 71.9892C11.2775 71.4209 11.0071 70.8755 10.4663 70.4401C10.1592 70.1972 9.80169 70.0047 9.41211 69.8626C10.425 69.5692 11.6992 69.7663 12.4829 70.3988C12.9046 70.738 13.12 71.1642 13.0788 71.6042Z" fill="#1E8323"/>
<rect x="16.2974" y="68.0669" width="62.38" height="3.83471" rx="1.91736" fill="#F2F2F2"/>
</svg>